<?xml version="1.0" encoding="UTF-8"?>
<svg version="1.1" xmlns="http://www.w3.org/2000/svg" width="704" height="228">
<path d="M0 0 C2.06810253 1.56039267 3.37509521 2.94178726 5 5 C5 5.66 5 6.32 5 7 C5.92619141 6.18595703 5.92619141 6.18595703 6.87109375 5.35546875 C15.39544707 -1.84546899 21.92344318 -4.62289006 33.140625 -4.28125 C40.48105153 -3.55924083 46.09815164 -0.52549319 51 5 C56.73622591 13.63114366 57.29200316 22.87487909 57.1953125 32.9375 C57.1924826 34.05817871 57.18965271 35.17885742 57.18673706 36.33349609 C57.17560251 39.88910911 57.15051014 43.44446398 57.125 47 C57.11496152 49.42056926 57.10583719 51.8411425 57.09765625 54.26171875 C57.07568516 60.17457761 57.04120166 66.08724513 57 72 C50.4 72 43.8 72 37 72 C36.9906543 70.5773584 36.98130859 69.1547168 36.97167969 67.68896484 C36.93174106 62.39958643 36.86597051 57.11078725 36.79248047 51.82177734 C36.76429348 49.53474379 36.74306769 47.24761323 36.72900391 44.96044922 C36.70754362 41.66844094 36.66087529 38.37759622 36.609375 35.0859375 C36.60814636 34.06696381 36.60691772 33.04799011 36.60565186 31.99813843 C36.48323072 26.03470356 35.95179112 22.55711253 32 18 C28.58489731 15.40923244 25.16827596 15.64066587 21 16 C17.37647454 17.46334682 14.4465848 18.92597699 12 22 C11.52868768 24.31517512 11.52868768 24.31517512 11.56762695 26.93041992 C11.54783279 27.93123093 11.52803864 28.93204193 11.50764465 29.96318054 C11.50125473 31.04138565 11.49486481 32.11959076 11.48828125 33.23046875 C11.46135445 34.88880486 11.46135445 34.88880486 11.43388367 36.5806427 C11.37964573 40.11622285 11.34584108 43.65166696 11.3125 47.1875 C11.27933891 49.58270128 11.2448504 51.97788457 11.20898438 54.37304688 C11.12391119 60.24859997 11.05716398 66.12411176 11 72 C4.73 72 -1.54 72 -8 72 C-8.05607422 67.39224609 -8.05607422 67.39224609 -8.11328125 62.69140625 C-8.15958715 59.69272024 -8.21078781 56.69415458 -8.26245117 53.69555664 C-8.29555845 51.62304086 -8.32363388 49.55043799 -8.34643555 47.4777832 C-8.38024376 44.48611589 -8.43257168 41.49523651 -8.48828125 38.50390625 C-8.49467117 37.58791153 -8.5010611 36.67191681 -8.50764465 35.72816467 C-8.63985286 29.84895194 -9.3219542 24.31846404 -12 19 C-16.20064711 15.84951467 -19.83848717 15.44698077 -25 16 C-28.62352546 17.46334682 -31.5534152 18.92597699 -34 22 C-34.47131232 24.31517512 -34.47131232 24.31517512 -34.43237305 26.93041992 C-34.45216721 27.93123093 -34.47196136 28.93204193 -34.49235535 29.96318054 C-34.50194023 31.5804882 -34.50194023 31.5804882 -34.51171875 33.23046875 C-34.52966995 34.33602615 -34.54762115 35.44158356 -34.56611633 36.5806427 C-34.62035427 40.11622285 -34.65415892 43.65166696 -34.6875 47.1875 C-34.72066109 49.58270128 -34.7551496 51.97788457 -34.79101562 54.37304688 C-34.87608881 60.24859997 -34.94283602 66.12411176 -35 72 C-41.6 72 -48.2 72 -55 72 C-55 47.58 -55 23.16 -55 -2 C-48.73 -2 -42.46 -2 -36 -2 C-35.67 -0.02 -35.34 1.96 -35 4 C-34.175 3.236875 -33.35 2.47375 -32.5 1.6875 C-22.897385 -6.19156872 -10.61327591 -5.93656261 0 0 Z " fill="#00AC46" transform="translate(321,47)"/>
<path d="M0 0 C2.46712663 1.87318874 4.77109235 3.84992831 7 6 C7.94875 5.0925 8.8975 4.185 9.875 3.25 C16.7713447 -2.58217928 24.05224562 -4.74432367 33.04296875 -4.375 C39.80376307 -3.51762054 45.09833621 -1.37642837 49.875 3.5625 C56.40204678 12.13950353 57.58746396 21.1559523 57.390625 31.66796875 C57.38496521 32.82879471 57.37930542 33.98962067 57.37347412 35.18562317 C57.35127982 38.85335461 57.30111402 42.52006931 57.25 46.1875 C57.22991316 48.69074099 57.21166625 51.19399746 57.1953125 53.69726562 C57.15147041 59.79856228 57.08256033 65.89910942 57 72 C50.73 72 44.46 72 38 72 C37.95101562 68.90496094 37.90203125 65.80992188 37.8515625 62.62109375 C37.79748607 59.60924627 37.74020475 56.59747551 37.68261719 53.58569336 C37.64443617 51.49948896 37.60956467 49.41322118 37.578125 47.3269043 C37.53223773 44.320571 37.47428267 41.31467001 37.4140625 38.30859375 C37.40251129 37.38227646 37.39096008 36.45595917 37.37905884 35.50157166 C37.23829302 29.26453303 36.81375176 22.2188182 33 17 C27.96019678 15.27206747 22.6624053 15.32864401 17.75 17.3125 C15.3333127 18.79546721 13.74235255 19.81081292 12 22 C11.52868768 24.31517512 11.52868768 24.31517512 11.56762695 26.93041992 C11.54783279 27.93123093 11.52803864 28.93204193 11.50764465 29.96318054 C11.50125473 31.04138565 11.49486481 32.11959076 11.48828125 33.23046875 C11.46135445 34.88880486 11.46135445 34.88880486 11.43388367 36.5806427 C11.37964573 40.11622285 11.34584108 43.65166696 11.3125 47.1875 C11.27933891 49.58270128 11.2448504 51.97788457 11.20898438 54.37304688 C11.12391119 60.24859997 11.05716398 66.12411176 11 72 C4.73 72 -1.54 72 -8 72 C-8.01458252 70.64318115 -8.02916504 69.2863623 -8.04418945 67.88842773 C-8.1023319 62.83575603 -8.17956419 57.78352254 -8.26245117 52.73120117 C-8.29562552 50.5480055 -8.3236806 48.36472561 -8.34643555 46.18139648 C-8.38011904 43.03593183 -8.43244276 39.89123376 -8.48828125 36.74609375 C-8.49467117 35.7760289 -8.5010611 34.80596405 -8.50764465 33.8065033 C-8.62963287 28.13406673 -9.23844067 23.99724506 -12 19 C-15.50555205 16.3291032 -18.20934456 15.7807903 -22.5 16.0625 C-26.91112057 16.73310955 -29.57428574 18.17378573 -33 21 C-34.20953395 23.41906791 -34.15679908 25.02166308 -34.20532227 27.72509766 C-34.22526749 28.70596344 -34.24521271 29.68682922 -34.26576233 30.69741821 C-34.29083107 32.28965714 -34.29083107 32.28965714 -34.31640625 33.9140625 C-34.33718735 34.99883881 -34.35796844 36.08361511 -34.37937927 37.20126343 C-34.44490634 40.67577621 -34.50377447 44.15036624 -34.5625 47.625 C-34.60568221 49.97657058 -34.6492964 52.32813326 -34.69335938 54.6796875 C-34.80059098 60.45304529 -34.90184955 66.22648098 -35 72 C-41.27 72 -47.54 72 -54 72 C-54 47.58 -54 23.16 -54 -2 C-47.73 -2 -41.46 -2 -35 -2 C-34.67 -0.35 -34.34 1.3 -34 3 C-32.96875 2.21625 -31.9375 1.4325 -30.875 0.625 C-21.51053015 -5.94688441 -9.70512448 -6.11200587 0 0 Z " fill="#00AC46" transform="translate(530,47)"/>
<path d="M0 0 C6.27 0 12.54 0 19 0 C19.33 10.56 19.66 21.12 20 32 C22.64 30.35 25.28 28.7 28 27 C35.69149881 23.89381779 44.47882028 23.8012018 52.3125 26.5 C58.23976395 29.21586853 62.27238922 33.34715506 65.05859375 39.23828125 C68.08737685 47.62902487 68.14375838 56.24831327 68.09765625 65.0625 C68.0962413 66.09439453 68.09482635 67.12628906 68.09336853 68.18945312 C68.08780642 71.45966589 68.07526102 74.7298082 68.0625 78 C68.0574801 80.22786359 68.05291805 82.45572826 68.04882812 84.68359375 C68.03784941 90.12242266 68.02061113 95.56119941 68 101 C61.4 101 54.8 101 48 101 C47.97421875 97.7721875 47.9484375 94.544375 47.921875 91.21875 C47.88340486 88.07445755 47.83826053 84.93032633 47.79248047 81.78613281 C47.76434633 79.60977951 47.7430944 77.43332547 47.72900391 75.25683594 C47.70746994 72.11861882 47.66076494 68.98160337 47.609375 65.84375 C47.60814636 64.87884644 47.60691772 63.91394287 47.60565186 62.9197998 C47.47597817 56.86738975 46.57109881 52.01306752 43 47 C39.19418796 44.53136516 35.45015993 44.61636552 31 45 C26.39010552 46.5626761 22.83614008 47.99612651 20 52 C19.37109647 55.69513359 19.39499802 59.36800641 19.390625 63.109375 C19.37408875 64.19132141 19.35755249 65.27326782 19.34051514 66.38800049 C19.29194899 69.84205758 19.27064434 73.29567411 19.25 76.75 C19.22184764 79.09247018 19.19192126 81.43491977 19.16015625 83.77734375 C19.0861872 89.51819292 19.03666481 95.25879627 19 101 C12.73 101 6.46 101 0 101 C0 67.67 0 34.34 0 0 Z " fill="#00AC46" transform="translate(50,18)"/>
<path d="M0 0 C7.7886417 5.99529059 11.69093576 14.39203745 14.07421875 23.7265625 C15.08998735 36.1697278 14.16203312 47.32994461 6.33203125 57.53515625 C-1.44646766 66.26705094 -11.37398028 71.09481647 -23.0859375 71.81640625 C-34.34407843 71.69754202 -45.06768335 68.28952853 -53.55078125 60.6640625 C-62.84967337 50.47630569 -64.27136244 38.93224565 -63.80761719 25.82714844 C-63.16508126 15.89401889 -58.01903837 7.71157431 -50.92578125 0.9765625 C-36.44515834 -11.00260923 -15.20122732 -9.68869434 0 0 Z M-39.42578125 18.6640625 C-43.68923843 24.58553081 -44.54238576 29.57805709 -43.67578125 36.7890625 C-42.04720426 42.44066481 -39.85520917 46.70606969 -34.67578125 49.7890625 C-29.42181837 52.12415711 -24.07005606 52.89329978 -18.5625 51.1015625 C-12.44848481 48.3381658 -8.9480138 44.79615762 -6.30078125 38.5390625 C-5.21611164 32.03104483 -5.50922173 26.24761849 -8.80078125 20.4140625 C-11.43718906 16.72458529 -14.25797117 14.06158388 -18.67578125 12.7890625 C-27.14309747 11.79893278 -33.34324243 12.30504465 -39.42578125 18.6640625 Z " fill="#00AC46" transform="translate(451.67578125,50.2109375)"/>
<path d="M0 0 C8.96073618 6.32323647 14.16588259 14.09321785 16.8203125 24.7109375 C16.8203125 30.3209375 16.8203125 35.9309375 16.8203125 41.7109375 C-0.3396875 42.0409375 -17.4996875 42.3709375 -35.1796875 42.7109375 C-31.33922337 50.93973791 -31.33922337 50.93973791 -24.1796875 54.7109375 C-16.38458207 56.59748402 -9.23211442 55.52902423 -2.21875 51.6171875 C-0.83268582 50.7061594 0.50176032 49.71720101 1.8203125 48.7109375 C5.40847989 50.20600725 7.5053431 52.25572201 10.0703125 55.1484375 C10.77671875 55.93089844 11.483125 56.71335938 12.2109375 57.51953125 C13.8203125 59.7109375 13.8203125 59.7109375 13.8203125 62.7109375 C5.50199673 70.4879312 -5.83387295 74.82773265 -17.1796875 74.7109375 C-29.28183444 73.99275454 -40.13463191 70.03270073 -48.4921875 60.99609375 C-56.32421997 50.39021645 -57.26934775 38.44439586 -56.1796875 25.7109375 C-54.0314038 15.97130931 -48.79858116 8.0755011 -41.1796875 1.7109375 C-38.60966842 0.07685056 -36.00449741 -1.160273 -33.1796875 -2.2890625 C-32.1484375 -2.7015625 -31.1171875 -3.1140625 -30.0546875 -3.5390625 C-19.91942414 -5.50072638 -9.06740314 -5.36244272 0 0 Z M-33.6171875 19.1484375 C-35.52401812 21.94602164 -35.52401812 21.94602164 -36.1796875 26.7109375 C-24.9596875 26.7109375 -13.7396875 26.7109375 -2.1796875 26.7109375 C-5.43962704 17.99843745 -5.43962704 17.99843745 -12.4921875 13.4609375 C-20.82593105 11.13524163 -27.5647865 13.0960365 -33.6171875 19.1484375 Z " fill="#00AC46" transform="translate(184.1796875,47.2890625)"/>
<path d="M0 0 C5.31830404 -0.41449612 10.62195367 -0.65344051 15.95703125 -0.546875 C16.83077393 -0.53237305 17.7045166 -0.51787109 18.60473633 -0.50292969 C21.66204472 0.13900847 22.81983212 1.32788532 24.8125 3.6875 C25.57332005 5.44496624 26.29839434 7.21806728 27 9 C28.38006403 11.40424947 29.88207435 13.7271812 31.375 16.0625 C32.58500093 18.04064759 33.79392085 20.01945886 35 22 C37.56168796 19.10140069 39.42220951 16.27018881 41.05859375 12.79296875 C45.79069937 3.32571566 45.79069937 3.32571566 50 0 C56.77671687 -2.06965991 64.1002596 -1.06172025 71 0 C69.41568866 4.6989234 66.83533789 8.36757938 64 12.375 C63.01336322 13.78839306 62.02771098 15.20247382 61.04296875 16.6171875 C60.28959229 17.69758301 60.28959229 17.69758301 59.52099609 18.79980469 C57.07511688 22.33788871 54.69152184 25.91674986 52.3125 29.5 C51.87873047 30.15274902 51.44496094 30.80549805 50.99804688 31.47802734 C49.99768975 32.98468267 48.99867955 34.49223218 48 36 C52.26772153 42.82234357 56.66523796 49.55211339 61.125 56.25 C61.62741211 57.00587402 62.12982422 57.76174805 62.64746094 58.54052734 C64.9916173 62.0521383 67.36708288 65.51919918 69.8671875 68.921875 C72 72 72 72 72 74 C53.43491478 76.3748305 53.43491478 76.3748305 48.05712891 72.65673828 C44.87471765 69.17718311 42.80970693 65.11728673 40.86376953 60.85107422 C39.74095662 58.44486521 38.34151093 56.27225626 36.875 54.0625 C36.25625 53.051875 35.6375 52.04125 35 51 C33.99455339 52.39191516 32.99613636 53.78890676 32 55.1875 C31.34257813 56.08597656 30.68515625 56.98445313 30.0078125 57.91015625 C27.88862277 60.97464111 27.88862277 60.97464111 26.4921875 64.55859375 C24.67183716 68.57303786 23.34688626 71.09490273 20 74 C13.16342076 75.62254444 5.91407985 74.79208209 -1 74 C0.39917174 70.12742546 2.21503749 66.94959884 4.51953125 63.54296875 C5.21240234 62.51236328 5.90527344 61.48175781 6.61914062 60.41992188 C7.34294922 59.35322266 8.06675781 58.28652344 8.8125 57.1875 C13.31400801 50.51875013 17.78966933 43.85729691 22 37 C20.21182035 34.14363536 18.41924584 31.29005782 16.625 28.4375 C16.08713867 27.5815625 15.54927734 26.725625 14.99511719 25.84375 C11.10784215 19.68451257 7.11699318 13.60699191 2.94775391 7.63452148 C0 3.32490771 0 3.32490771 0 0 Z " fill="#00AC46" transform="translate(632,45)"/>
<path d="M0 0 C0 6.27 0 12.54 0 19 C6.27 19 12.54 19 19 19 C19 24.94 19 30.88 19 37 C12.73 37 6.46 37 0 37 C0.08689396 41.56343089 0.19378678 46.1248806 0.3125 50.6875 C0.33505859 51.98107422 0.35761719 53.27464844 0.38085938 54.60742188 C0.4340332 56.47817383 0.4340332 56.47817383 0.48828125 58.38671875 C0.51446533 59.53358154 0.54064941 60.68044434 0.56762695 61.86206055 C1.04571251 65.33175767 1.88519576 67.22742105 4 70 C8.48641767 72.37018292 11.91105794 73.15184299 17 74 C17 80.27 17 86.54 17 93 C6.22816198 93.34378206 -3.55522942 93.20660776 -12.11836243 85.89572144 C-18.16419531 79.80463612 -19.52856142 72.83875188 -19.58038616 64.47050667 C-19.56610827 62.28972715 -19.52767407 60.11014567 -19.48828125 57.9296875 C-19.47893652 56.39699466 -19.47182827 54.86428671 -19.46684265 53.33157349 C-19.44790287 49.32980913 -19.39891863 45.3289762 -19.34332275 41.32757568 C-19.29184572 37.23153274 -19.26926839 33.13533683 -19.24414062 29.0390625 C-19.19078365 21.02561789 -19.10563368 13.01292535 -19 5 C-16.39741676 4.16142312 -13.79314353 3.32896656 -11.1875 2.5 C-10.08051758 2.14228516 -10.08051758 2.14228516 -8.95117188 1.77734375 C-5.86744804 0.80059864 -3.25504191 0 0 0 Z " fill="#00AC46" transform="translate(19,26)"/>
<path d="M0 0 C0 6.27 0 12.54 0 19 C-1.835625 19.0825 -3.67125 19.165 -5.5625 19.25 C-11.92693053 19.78287095 -16.25068337 20.94843961 -20.65657043 25.83868408 C-22.22759514 28.36615616 -22.39264862 29.81305762 -22.43237305 32.76855469 C-22.45216721 33.70922791 -22.47196136 34.64990112 -22.49235535 35.61907959 C-22.50194023 37.13021332 -22.50194023 37.13021332 -22.51171875 38.671875 C-22.52966995 39.70942932 -22.54762115 40.74698364 -22.56611633 41.815979 C-22.62026377 45.1272781 -22.65412985 48.43843267 -22.6875 51.75 C-22.72066909 53.99611388 -22.75515836 56.24220868 -22.79101562 58.48828125 C-22.8759931 63.99208331 -22.94278356 69.49584216 -23 75 C-29.27 75 -35.54 75 -42 75 C-42 50.58 -42 26.16 -42 1 C-36.06 1 -30.12 1 -24 1 C-23.67 2.98 -23.34 4.96 -23 7 C-22.5153125 6.59007812 -22.030625 6.18015625 -21.53125 5.7578125 C-14.1890447 -0.14419099 -9.63984916 -1.37712131 0 0 Z " fill="#00AC46" transform="translate(255,44)"/>
<path d="M0 0 C2.22808159 -0.10853983 4.45769932 -0.18583307 6.6875 -0.25 C7.92886719 -0.29640625 9.17023437 -0.3428125 10.44921875 -0.390625 C14.67971983 0.07477666 16.09527314 0.93389943 19 4 C20.80078125 7.015625 20.80078125 7.015625 22.3125 10.25 C22.82425781 11.32765625 23.33601562 12.4053125 23.86328125 13.515625 C24.23839844 14.33546875 24.61351562 15.1553125 25 16 C25.72445312 15.73445312 26.44890625 15.46890625 27.1953125 15.1953125 C32.11057191 13.3996044 37.02146805 11.61465901 42 10 C43.70726778 15.12180334 43.61357146 20.04424097 42 25.1875 C38.00491371 30.80559009 32.22201576 34.20009291 26 37 C26.34933594 37.81984375 26.69867187 38.6396875 27.05859375 39.484375 C27.51363281 40.56203125 27.96867188 41.6396875 28.4375 42.75 C28.88996094 43.81734375 29.34242188 44.8846875 29.80859375 45.984375 C30.73979553 48.3413841 31.4784072 50.52992835 32 53 C28.27826273 54.86086863 24.06185464 54.42624401 20 54 C12.92871269 50.87231523 9.24302315 43.73080277 6 37 C5.18015625 37.34933594 4.3603125 37.69867188 3.515625 38.05859375 C1.89914062 38.74115234 1.89914062 38.74115234 0.25 39.4375 C-0.81734375 39.88996094 -1.8846875 40.34242187 -2.984375 40.80859375 C-5.3413841 41.73979553 -7.52992835 42.4784072 -10 43 C-12.07385899 38.85228203 -11.68730107 33.38233412 -10.421875 28.99609375 C-7.18758631 22.42460719 -0.34890037 19.07344495 6 16 C5.65066406 15.18015625 5.30132813 14.3603125 4.94140625 13.515625 C4.48636719 12.43796875 4.03132812 11.3603125 3.5625 10.25 C3.11003906 9.18265625 2.65757812 8.1153125 2.19140625 7.015625 C1.26020447 4.6586159 0.5215928 2.47007165 0 0 Z " fill="#00AC46" transform="translate(596,0)"/>
<path d="M0 0 C2.31 1.98 4.62 3.96 7 6 C11.17639052 9.06836855 13.91397698 10.30465899 19 12 C19 30.15 19 48.3 19 67 C12.73 67 6.46 67 0 67 C0 44.89 0 22.78 0 0 Z " fill="#00AC46" transform="translate(603,52)"/>
<path d="M0 0 C0.66 0 1.32 0 2 0 C3.04239561 1.19342452 4.03409725 2.43136204 5 3.6875 C9.62059273 9.16231995 15.29764418 11.76588139 22 14 C32.32484218 14.76341257 41.46302768 14.66905794 49.69140625 7.73046875 C51.419867 6.13283763 53.11721749 4.50052957 54.7734375 2.828125 C57 1 57 1 61 1 C60.57662522 5.79824745 58.42748252 8.79077698 55 12 C43.68219551 20.63187625 32.97639964 21.54945528 19 20 C11.49106387 18.19574509 5.47798935 13.22898984 0 8 C-0.33 8.99 -0.66 9.98 -1 11 C-2.8203125 12.5 -2.8203125 12.5 -5.125 14 C-5.87007813 14.495 -6.61515625 14.99 -7.3828125 15.5 C-14.34200989 19.48855492 -19.40442845 20.50012592 -27.375 20.4375 C-28.71691406 20.4674707 -28.71691406 20.4674707 -30.0859375 20.49804688 C-38.60675658 20.49185442 -45.23536448 17.85062203 -51.875 12.5 C-52.59429687 11.9328125 -53.31359375 11.365625 -54.0546875 10.78125 C-56.04785388 8.95618199 -57.58899016 7.30731169 -59 5 C-59 3.68 -59 2.36 -59 1 C-54.69275579 1.50363938 -52.83235989 2.75864544 -49.8125 5.8125 C-41.81298913 13.12896561 -34.3878425 14.72174141 -23.6171875 14.375 C-13.99034722 13.37696904 -7.58763273 8.93277066 -1 2 C-0.67 1.34 -0.34 0.68 0 0 Z " fill="#00AC46" transform="translate(353,208)"/>
<path d="M0 0 C1.2684375 0.9590625 1.2684375 0.9590625 2.5625 1.9375 C3.34625 2.47375 4.13 3.01 4.9375 3.5625 C5.47375 4.01625 6.01 4.47 6.5625 4.9375 C6.5625 5.5975 6.5625 6.2575 6.5625 6.9375 C7.17996094 6.40640625 7.79742187 5.8753125 8.43359375 5.328125 C19.20731537 -3.65817553 28.48797417 -7.19420027 42.5625 -6.0625 C52.50374569 -3.78239778 61.72758034 1.46745534 67.5625 9.9375 C67.5625 10.9275 67.5625 11.9175 67.5625 12.9375 C65.375 13.25 65.375 13.25 62.5625 12.9375 C59.75 10.5625 59.75 10.5625 57.5625 7.9375 C57.5625 7.2775 57.5625 6.6175 57.5625 5.9375 C56.84449219 5.65132812 56.12648438 5.36515625 55.38671875 5.0703125 C53.59180365 4.35036038 51.80200452 3.61741434 50.01953125 2.8671875 C40.00336005 -1.12744503 31.59076224 -1.19483565 21.5625 2.9375 C19.44546684 4.15785589 17.54494122 5.50023012 15.5625 6.9375 C14.9025 6.9375 14.2425 6.9375 13.5625 6.9375 C13.294375 7.515 13.02625 8.0925 12.75 8.6875 C11.53320811 10.99300043 10.25916121 12.95806192 8.5625 14.9375 C7.9025 14.9375 7.2425 14.9375 6.5625 14.9375 C1.5625 9.46130952 1.5625 9.46130952 1.5625 6.9375 C-9.21605674 1.4871187 -18.52004573 -2.16688492 -30.625 1.1875 C-36.32579226 3.08189001 -40.42375451 5.80166625 -44.5 10.1875 C-46.65826253 12.45396039 -47.07546974 12.89027866 -50.3125 13.3125 C-51.01375 13.18875 -51.715 13.065 -52.4375 12.9375 C-51.94457859 8.66551448 -49.4903828 5.76683074 -46.4375 2.9375 C-32.11613936 -7.38487687 -15.42055027 -9.9848063 0 0 Z " fill="#00AC46" transform="translate(346.4375,153.0625)"/>
<path d="M0 0 C2.64 0 5.28 0 8 0 C9.32 4.62 10.64 9.24 12 14 C13.32 9.38 14.64 4.76 16 0 C18.31 0 20.62 0 23 0 C24.32 4.62 25.64 9.24 27 14 C28.32 9.38 29.64 4.76 31 0 C33.31 0 35.62 0 38 0 C35.54201885 10.06726323 32.92124175 20.05534724 30 30 C27.69 30 25.38 30 23 30 C22.51891725 28.58398286 22.04021859 27.16715563 21.5625 25.75 C21.29566406 24.96109375 21.02882813 24.1721875 20.75390625 23.359375 C20.08045292 21.25178012 19.50849405 19.15246027 19 17 C17.53060547 21.30322683 16.22556737 25.62297367 15 30 C12.69 30 10.38 30 8 30 C5.86713035 23.93815994 4.04936168 17.80968166 2.3125 11.625 C2.08602783 10.82787598 1.85955566 10.03075195 1.6262207 9.20947266 C1.31044067 8.07324463 1.31044067 8.07324463 0.98828125 6.9140625 C0.79790283 6.2329541 0.60752441 5.5518457 0.41137695 4.85009766 C0 3 0 3 0 0 Z " fill="#00AC46" transform="translate(335,173)"/>
<path d="M0 0 C4.34731225 2.2146685 7.48432837 4.80721395 10 9 C11.50251065 14.37199014 11.3078038 19.0863032 9.08984375 24.20703125 C6.68470737 28.16386852 3.39342672 30.53552443 -1 32 C-6.25765945 32.39680449 -9.56102842 31.89498146 -14 29 C-18.05477027 24.99987623 -20.13108857 21.42497631 -20.25 15.6875 C-20.1876066 11.41701833 -19.43140455 8.60518606 -17 5 C-11.75598535 0.14928645 -6.95871522 -0.85792379 0 0 Z M-11 10 C-12.61499021 13.22998043 -12.57976204 16.50809992 -12 20 C-10.1235883 23.21013047 -10.1235883 23.21013047 -7 25 C-3.35592863 25.33660145 -3.35592863 25.33660145 0 24 C2.31756236 21.68243764 2.93901179 20.06919956 3.125 16.80859375 C2.90350196 12.60705274 2.54582325 10.58891456 -0.375 7.4375 C-5.2724178 4.75558073 -7.15141702 6.55653102 -11 10 Z " fill="#00AC46" transform="translate(295,172)"/>
<path d="M0 0 C2.866875 -0.0825 5.73375 -0.165 8.6875 -0.25 C9.58170654 -0.28641602 10.47591309 -0.32283203 11.3972168 -0.36035156 C15.44692845 -0.41666694 17.50103852 -0.31241573 21.01953125 1.890625 C24.12511872 5.1983513 24.27598172 7.49334214 24.2265625 12.0234375 C23.91605918 14.73231128 22.98751492 16.16537084 21 18 C20.34 18 19.68 18 19 18 C19.433125 18.61488281 19.86625 19.22976562 20.3125 19.86328125 C20.869375 20.67152344 21.42625 21.47976562 22 22.3125 C22.556875 23.11300781 23.11375 23.91351563 23.6875 24.73828125 C25 27 25 27 25 30 C19.93360692 30.78616444 19.93360692 30.78616444 17 30 C14.41276779 27.31715269 12.71199066 24.29312854 11 21 C10.61585938 20.30390625 10.23171875 19.6078125 9.8359375 18.890625 C9 17 9 17 9 14 C12.465 13.505 12.465 13.505 16 13 C16 11.02 16 9.04 16 7 C13.03 6.67 10.06 6.34 7 6 C7 13.92 7 21.84 7 30 C4.69 30 2.38 30 0 30 C0 20.1 0 10.2 0 0 Z " fill="#00AC46" transform="translate(309,173)"/>
<path d="M0 0 C2.68125 -0.103125 5.3625 -0.20625 8.125 -0.3125 C9.37434326 -0.38078003 9.37434326 -0.38078003 10.64892578 -0.45043945 C14.63845872 -0.52421392 17.29219782 -0.2345766 20.515625 2.23828125 C23.79074889 5.87902431 23.79074889 5.87902431 23.625 9.5 C23.35750456 13.7165728 22.07559305 16.02051923 19 19 C19.433125 19.62648437 19.86625 20.25296875 20.3125 20.8984375 C20.869375 21.71570313 21.42625 22.53296875 22 23.375 C22.556875 24.18710938 23.11375 24.99921875 23.6875 25.8359375 C25 28 25 28 25 30 C22.03 30 19.06 30 16 30 C14.66141476 27.71125827 13.32898986 25.41930344 12 23.125 C11.6184375 22.47402344 11.236875 21.82304687 10.84375 21.15234375 C8 16.2265625 8 16.2265625 8 14 C10.31 13.34 12.62 12.68 15 12 C14.67 10.35 14.34 8.7 14 7 C11.69 6.67 9.38 6.34 7 6 C7 13.92 7 21.84 7 30 C4.69 30 2.38 30 0 30 C0 20.1 0 10.2 0 0 Z " fill="#00AC46" transform="translate(402,173)"/>
<path d="M0 0 C2.31 0 4.62 0 7 0 C7.33 3.3 7.66 6.6 8 10 C8.4846875 9.278125 8.969375 8.55625 9.46875 7.8125 C14.87852238 0.32204594 14.87852238 0.32204594 18.3125 -0.6640625 C20.5 -0.625 20.5 -0.625 24 0 C23.28399109 4.58245702 20.55286611 6.80816709 17.3984375 10 C15.81748028 11.85310429 15.81748028 11.85310429 16.00390625 13.90234375 C17.92536049 17.94870034 21.14800723 21.0859303 24.06640625 24.44140625 C26 27 26 27 26 30 C22.77465151 30.73914236 20.20216534 30.91419844 17 30 C13.25095237 26.19471665 10.38643563 21.77287127 8 17 C7.67 21.29 7.34 25.58 7 30 C4.69 30 2.38 30 0 30 C0 20.1 0 10.2 0 0 Z " fill="#00AC46" transform="translate(430,173)"/>
<path d="M0 0 C6.93 0 13.86 0 21 0 C21 1.98 21 3.96 21 6 C16.38 6 11.76 6 7 6 C7 7.65 7 9.3 7 11 C10.96 11 14.92 11 19 11 C19 12.98 19 14.96 19 17 C15.04 17 11.08 17 7 17 C7 18.98 7 20.96 7 23 C11.62 23 16.24 23 21 23 C21 25.31 21 27.62 21 30 C14.07 30 7.14 30 0 30 C0 20.1 0 10.2 0 0 Z " fill="#00AC46" transform="translate(376,173)"/>
<path d="M0 0 C2.64 0 5.28 0 8 0 C8.25394531 0.64066406 8.50789062 1.28132812 8.76953125 1.94140625 C9.11371094 2.80636719 9.45789063 3.67132813 9.8125 4.5625 C10.14894531 5.40941406 10.48539062 6.25632813 10.83203125 7.12890625 C12.17788952 10.43728694 13.59305629 13.71713134 15 17 C16.98 11.39 18.96 5.78 21 0 C23.31 0 25.62 0 28 0 C27.41054142 4.18868721 26.4409435 7.88710576 24.93359375 11.8359375 C24.53076172 12.89941406 24.12792969 13.96289062 23.71289062 15.05859375 C23.29201172 16.15300781 22.87113281 17.24742187 22.4375 18.375 C22.01275391 19.49261719 21.58800781 20.61023438 21.15039062 21.76171875 C20.10520253 24.50974139 19.05493476 27.25570752 18 30 C15.69 30 13.38 30 11 30 C8.08041159 23.17901469 5.31037848 16.31486302 2.6875 9.375 C2.42114746 8.67632812 2.15479492 7.97765625 1.88037109 7.2578125 C0 2.24019718 0 2.24019718 0 0 Z " fill="#00AC46" transform="translate(247,173)"/>
</svg>
